<svg width="54" height="54" viewBox="0 0 54 54" fill="none" xmlns="http://www.w3.org/2000/svg">
<path d="M4.5 45C4.5 46.1935 4.97411 47.3381 5.81802 48.182C6.66193 49.0259 7.80653 49.5 9 49.5H45C46.1935 49.5 47.3381 49.0259 48.182 48.182C49.0259 47.3381 49.5 46.1935 49.5 45V18L33.75 29.25V18L18 29.25V9C18 7.80653 17.5259 6.66193 16.682 5.81802C15.8381 4.97411 14.6935 4.5 13.5 4.5H9C7.80653 4.5 6.66193 4.97411 5.81802 5.81802C4.97411 6.66193 4.5 7.80653 4.5 9V45Z" stroke="white" stroke-width="2.66667" stroke-linecap="round" stroke-linejoin="round"/>
<path d="M38.25 40.5H40.5" stroke="white" stroke-width="2.66667" stroke-linecap="round" stroke-linejoin="round"/>
<path d="M27 40.5H29.25" stroke="white" stroke-width="2.66667" stroke-linecap="round" stroke-linejoin="round"/>
<path d="M15.75 40.5H18" stroke="white" stroke-width="2.66667" stroke-linecap="round" stroke-linejoin="round"/>
</svg>
